<svg width="21" height="22" viewBox="0 0 21 22" fill="none" xmlns="http://www.w3.org/2000/svg">
<path d="M4.42105 5.03766e-07C5.83115 -0.000507093 7.21457 0.382587 8.42175 1.10787C9.62894 1.83315 10.614 2.87303 11.2704 4.1151C11.9336 3.18245 12.8121 2.42185 13.832 1.89719C14.852 1.37254 15.9835 1.09915 17.1316 1.1H21V3.85C21 5.7463 20.2431 7.56493 18.8958 8.90581C17.5485 10.2467 15.7212 11 13.8158 11H12.1579V12.1H17.6842V19.8C17.6842 20.3835 17.4513 20.9431 17.0368 21.3556C16.6222 21.7682 16.06 22 15.4737 22H6.63158C6.04531 22 5.48305 21.7682 5.0685 21.3556C4.65395 20.9431 4.42105 20.3835 4.42105 19.8V12.1H9.94737V9.9H7.73684C5.6849 9.9 3.71701 9.08875 2.26607 7.64472C0.815129 6.20069 0 4.24217 0 2.2V5.03766e-07H4.42105ZM15.4737 14.3H6.63158V19.8H15.4737V14.3ZM18.7895 3.3H17.1316C15.8125 3.3 14.5474 3.82152 13.6147 4.74982C12.6819 5.67813 12.1579 6.93718 12.1579 8.25V8.8H13.8158C14.4689 8.8 15.1157 8.67197 15.7191 8.4232C16.3226 8.17444 16.8709 7.80983 17.3327 7.35018C17.7946 6.89053 18.1609 6.34485 18.4109 5.74428C18.6608 5.14372 18.7895 4.50004 18.7895 3.85V3.3ZM4.42105 2.2H2.21053C2.21053 3.65869 2.79276 5.05764 3.82915 6.08909C4.86553 7.12054 6.27117 7.7 7.73684 7.7H9.94737C9.94737 6.24131 9.36513 4.84236 8.32875 3.81091C7.29236 2.77946 5.88672 2.2 4.42105 2.2Z" fill="#22B573"/>
</svg>
