<svg width="26" height="26" viewBox="0 0 26 26" fill="none" xmlns="http://www.w3.org/2000/svg">
<path d="M2.2 8.2H10.6C11.312 8.2 12.008 7.98886 12.6001 7.59329C13.1921 7.19772 13.6535 6.63548 13.926 5.97766C14.1984 5.31985 14.2697 4.59601 14.1308 3.89768C13.9919 3.19934 13.6491 2.55789 13.1456 2.05442C12.6421 1.55095 12.0007 1.20808 11.3023 1.06917C10.604 0.930268 9.88015 1.00156 9.22234 1.27404C8.56452 1.54651 8.00228 2.00793 7.60671 2.59995C7.21114 3.19197 7 3.88799 7 4.6M3.4 17.8H16.6C17.312 17.8 18.008 18.0111 18.6 18.4067C19.1921 18.8023 19.6535 19.3645 19.926 20.0223C20.1984 20.6802 20.2697 21.404 20.1308 22.1023C19.9919 22.8007 19.6491 23.4421 19.1456 23.9456C18.6421 24.4491 18.0007 24.7919 17.3023 24.9308C16.604 25.0697 15.8802 24.9984 15.2223 24.726C14.5645 24.4535 14.0023 23.9921 13.6067 23.4001C13.2111 22.808 13 22.112 13 21.4M1 13H21.4C22.112 13 22.808 12.7889 23.4 12.3933C23.9921 11.9977 24.4535 11.4355 24.726 10.7777C24.9984 10.1198 25.0697 9.39601 24.9308 8.69768C24.7919 7.99934 24.4491 7.35789 23.9456 6.85442C23.4421 6.35095 22.8007 6.00808 22.1023 5.86917C21.404 5.73027 20.6802 5.80156 20.0223 6.07403C19.3645 6.34651 18.8023 6.80793 18.4067 7.39995C18.0111 7.99196 17.8 8.68799 17.8 9.4" stroke="#D00000" stroke-width="2" stroke-linecap="round" stroke-linejoin="round"/>
</svg>
