<svg width="16" height="16" viewBox="0 0 16 16" fill="none" xmlns="http://www.w3.org/2000/svg">
<path d="M6.88 16C6.2 16 5.68347 15.7965 5.3304 15.3896C4.97733 14.9827 4.80053 14.5195 4.8 14C4.8 13.6533 4.8768 13.3165 5.0304 12.9896C5.184 12.6627 5.42053 12.3928 5.74 12.18C6.03333 11.9933 6.27013 11.7533 6.4504 11.46C6.63067 11.1667 6.75387 10.8533 6.82 10.52L6.58 10.4C6.5 10.36 6.42667 10.3133 6.36 10.26L4.52 10.92C4.29333 11 4.07333 11.0667 3.86 11.12C3.64667 11.1733 3.42667 11.2 3.2 11.2C2.36 11.2 1.61653 10.8333 0.969601 10.1C0.322667 9.36667 -0.000532674 8.29333 6.58979e-07 6.88C6.58979e-07 6.2 0.203467 5.68347 0.610401 5.3304C1.01733 4.97733 1.47387 4.80053 1.98 4.8C2.32667 4.8 2.66667 4.8768 3 5.0304C3.33333 5.184 3.60667 5.42053 3.82 5.74C4.00667 6.03333 4.24667 6.26987 4.54 6.4496C4.83333 6.62933 5.14667 6.7528 5.48 6.82L5.6 6.58C5.64 6.5 5.68667 6.42667 5.74 6.36L5.08 4.52C5 4.29333 4.93333 4.07333 4.88 3.86C4.82667 3.64667 4.8 3.43333 4.8 3.22C4.8 2.36667 5.16667 1.61653 5.9 0.969601C6.63333 0.322667 7.70667 -0.000532674 9.12 6.58979e-07C9.8 6.58979e-07 10.3168 0.203467 10.6704 0.610401C11.024 1.01733 11.2005 1.47387 11.2 1.98C11.2 2.32667 11.1232 2.66667 10.9696 3C10.816 3.33333 10.5795 3.60667 10.26 3.82C9.96667 4.00667 9.73013 4.24667 9.5504 4.54C9.37067 4.83333 9.2472 5.14667 9.18 5.48L9.42 5.6C9.5 5.64 9.57333 5.68667 9.64 5.74L11.48 5.06C11.7067 4.98 11.9235 4.9168 12.1304 4.8704C12.3373 4.824 12.5539 4.80053 12.78 4.8C13.86 4.8 14.6667 5.24667 15.2 6.14C15.7333 7.03333 16 8.02667 16 9.12C16 9.8 15.7867 10.3168 15.36 10.6704C14.9333 11.024 14.46 11.2005 13.94 11.2C13.6067 11.2 13.2832 11.1232 12.9696 10.9696C12.656 10.816 12.3928 10.5795 12.18 10.26C11.9933 9.96667 11.7533 9.73013 11.46 9.5504C11.1667 9.37067 10.8533 9.2472 10.52 9.18L10.4 9.42C10.36 9.5 10.3133 9.57333 10.26 9.64L10.92 11.48C11 11.6933 11.0667 11.8968 11.12 12.0904C11.1733 12.284 11.2 12.4872 11.2 12.7C11.2133 13.5667 10.8533 14.3333 10.12 15C9.38667 15.6667 8.30667 16 6.88 16ZM8 9.2C8.33333 9.2 8.61653 9.08347 8.8496 8.8504C9.08267 8.61733 9.19947 8.33387 9.2 8C9.2 7.66667 9.08347 7.38347 8.8504 7.1504C8.61733 6.91733 8.33387 6.80053 8 6.8C7.66667 6.8 7.38347 6.9168 7.1504 7.1504C6.91733 7.384 6.80053 7.6672 6.8 8C6.8 8.33333 6.9168 8.6168 7.1504 8.8504C7.384 9.084 7.6672 9.20053 8 9.2ZM7.08 5.36C7.16 5.33333 7.24347 5.30987 7.3304 5.2896C7.41733 5.26933 7.50053 5.2528 7.58 5.24C7.68667 4.68 7.89013 4.16 8.1904 3.68C8.49067 3.2 8.8872 2.8 9.38 2.48C9.44667 2.42667 9.5 2.36 9.54 2.28C9.58 2.2 9.6 2.1 9.6 1.98C9.6 1.87333 9.56 1.78347 9.48 1.7104C9.4 1.63733 9.28 1.60053 9.12 1.6C8.61333 1.6 8.04 1.71013 7.4 1.9304C6.76 2.15067 6.42667 2.58053 6.4 3.22C6.4 3.34 6.4168 3.45333 6.4504 3.56C6.484 3.66667 6.51387 3.76667 6.54 3.86L7.08 5.36ZM3.2 9.6C3.38667 9.6 3.60667 9.55333 3.86 9.46L5.36 8.92C5.33333 8.84 5.30987 8.75653 5.2896 8.6696C5.26933 8.58267 5.2528 8.49947 5.24 8.42C4.68 8.31333 4.16 8.10987 3.68 7.8096C3.2 7.50933 2.8 7.1128 2.48 6.62C2.42667 6.55333 2.3568 6.5 2.2704 6.46C2.184 6.42 2.0872 6.4 1.98 6.4C1.86 6.4 1.76667 6.44 1.7 6.52C1.63333 6.6 1.6 6.72 1.6 6.88C1.6 7.6 1.7368 8.23333 2.0104 8.78C2.284 9.32667 2.68053 9.6 3.2 9.6ZM6.88 14.4C7.50667 14.4 8.12347 14.2733 8.7304 14.02C9.33733 13.7667 9.6272 13.3267 9.6 12.7C9.6 12.5933 9.58347 12.4933 9.5504 12.4C9.51733 12.3067 9.4872 12.22 9.46 12.14L8.92 10.64C8.84 10.6667 8.7568 10.6901 8.6704 10.7104C8.584 10.7307 8.50053 10.7472 8.42 10.76C8.31333 11.32 8.10987 11.84 7.8096 12.32C7.50933 12.8 7.1128 13.2 6.62 13.52C6.55333 13.5733 6.49653 13.6435 6.4496 13.7304C6.40267 13.8173 6.38613 13.9072 6.4 14C6.41333 14.1067 6.45333 14.2 6.52 14.28C6.58667 14.36 6.70667 14.4 6.88 14.4ZM13.94 9.6C14.06 9.6 14.1667 9.56667 14.26 9.5C14.3533 9.43333 14.4 9.30667 14.4 9.12C14.4 8.61333 14.2933 8.0368 14.08 7.3904C13.8667 6.744 13.4333 6.41387 12.78 6.4C12.66 6.4 12.5467 6.41333 12.44 6.44C12.3333 6.46667 12.2333 6.49333 12.14 6.52L10.64 7.08C10.6667 7.16 10.6901 7.24347 10.7104 7.3304C10.7307 7.41733 10.7472 7.50053 10.76 7.58C11.32 7.68667 11.84 7.89013 12.32 8.1904C12.8 8.49067 13.2 8.8872 13.52 9.38C13.56 9.44667 13.62 9.5 13.7 9.54C13.78 9.58 13.86 9.6 13.94 9.6Z" fill="#52B788"/>
</svg>
