<svg width="20" height="16" viewBox="0 0 20 16" fill="none" xmlns="http://www.w3.org/2000/svg">
<path fill-rule="evenodd" clip-rule="evenodd" d="M7.5 0L7.39655 0.00600715C7.15798 0.033842 6.94186 0.157015 6.80662 0.346344L5.38667 2.33333H2.5C1.11929 2.33333 0 3.378 0 4.66667V13.2222C0 14.5109 1.11929 15.5556 2.5 15.5556H17.5C18.8807 15.5556 20 14.5109 20 13.2222V4.66667L19.9958 4.52957C19.9197 3.30472 18.8314 2.33333 17.5 2.33333H14.6125L13.1934 0.346344C13.0388 0.129968 12.7786 0 12.5 0H7.5ZM7.94583 1.55599H12.0533L13.4733 3.54298C13.6278 3.75936 13.888 3.88932 14.1667 3.88932H17.5C17.9602 3.88932 18.3333 4.23755 18.3333 4.6671V13.2227C18.3333 13.6522 17.9602 14.0004 17.5 14.0004H2.5C2.03976 14.0004 1.66667 13.6522 1.66667 13.2227V4.6671C1.66667 4.23755 2.03976 3.88932 2.5 3.88932H5.83333L5.93678 3.88332C6.17536 3.85548 6.39147 3.73231 6.52671 3.54298L7.94583 1.55599ZM10 4.66657C7.69881 4.66657 5.83333 6.40769 5.83333 8.55546C5.83333 10.7032 7.69881 12.4444 10 12.4444C12.3012 12.4444 14.1667 10.7032 14.1667 8.55546C14.1667 6.40769 12.3012 4.66657 10 4.66657ZM10 6.22263C11.3807 6.22263 12.5 7.2673 12.5 8.55597C12.5 9.84463 11.3807 10.8893 10 10.8893C8.61929 10.8893 7.5 9.84463 7.5 8.55597C7.5 7.2673 8.61929 6.22263 10 6.22263Z" fill="white"/>
</svg>
