<svg width="18" height="18" viewBox="0 0 18 18" fill="none" xmlns="http://www.w3.org/2000/svg">
<g clip-path="url(#clip0_1087_7697)">
<path d="M17.7363 16.7964H14.1154L14.1208 11.502L14.7047 10.9182C14.8668 10.9473 15.03 10.9618 15.1925 10.9618C15.6595 10.9618 16.1208 10.8428 16.5342 10.6107C16.6611 10.5394 16.7062 10.3786 16.6349 10.2517C16.5636 10.1247 16.4028 10.0796 16.2759 10.1509C15.9412 10.3388 15.5674 10.4346 15.1888 10.434L16.5692 9.05367C16.6722 8.9507 16.6722 8.78374 16.5692 8.6808C16.4662 8.57783 16.2993 8.57783 16.1963 8.6808L14.816 10.0611C14.8145 9.47783 15.0416 8.91508 15.466 8.49082C15.9737 7.98302 16.6798 7.75633 17.3819 7.86781C17.4633 8.38964 17.356 8.93273 17.0788 9.38087C17.0022 9.50469 17.0405 9.66722 17.1644 9.74382C17.2882 9.82036 17.4507 9.78214 17.5273 9.65829C17.9067 9.04498 18.0291 8.2886 17.8632 7.58315C17.8404 7.48577 17.7643 7.40973 17.6669 7.38684C16.7327 7.16715 15.7706 7.44049 15.0931 8.11795C14.451 8.76001 14.1723 9.65786 14.3319 10.5453L14.1209 10.7563V7.37759L14.5575 6.94092C14.6828 6.96191 14.8082 6.97266 14.9327 6.97266C15.5216 6.97266 16.0894 6.74155 16.5181 6.31292C17.0729 5.75805 17.2967 4.97006 17.1168 4.20502C17.0939 4.10764 17.0179 4.0316 16.9205 4.00871C16.1554 3.82878 15.3675 4.05269 14.8126 4.60749C14.2933 5.12682 14.064 5.85044 14.1843 6.56833L13.8789 6.87373L13.5735 6.56833C13.6938 5.85044 13.4645 5.12682 12.9452 4.60749C12.3904 4.05266 11.6024 3.82885 10.8373 4.00871C10.74 4.0316 10.6639 4.10764 10.641 4.20502C10.4611 4.97009 10.685 5.75809 11.2398 6.31292C11.6684 6.74158 12.2362 6.97266 12.8251 6.97266C12.9496 6.97266 13.075 6.96191 13.2003 6.94092L13.5936 7.33414V10.7128L13.426 10.5452C13.5856 9.65783 13.3069 8.75997 12.6648 8.11788C11.9873 7.44038 11.025 7.16715 10.0909 7.38677C9.99355 7.40966 9.91751 7.4857 9.89462 7.58308C9.67496 8.51725 9.94827 9.47945 10.6257 10.1569C11.1491 10.6803 11.8423 10.9625 12.5615 10.9625C12.7246 10.9625 12.8891 10.9478 13.0532 10.9183L13.5881 11.4532V16.7964H8.16599V15.4864C8.16599 15.3408 8.04797 15.2227 7.90232 15.2227C7.75666 15.2227 7.63864 15.3408 7.63864 15.4864V16.7964H5.04492C4.89927 16.7964 4.78125 16.9144 4.78125 17.06C4.78125 17.2057 4.89927 17.3237 5.04492 17.3237H17.7363C17.882 17.3237 18 17.2057 18 17.06C18 16.9144 17.882 16.7964 17.7363 16.7964ZM15.1855 4.98036C15.5704 4.5955 16.1018 4.41884 16.6342 4.4913C16.7067 5.0236 16.5299 5.55513 16.1451 5.93998C15.848 6.23709 15.4635 6.40967 15.0587 6.43973L16.0678 5.43054C16.1708 5.32756 16.1708 5.16061 16.0678 5.05767C15.9648 4.9547 15.7979 4.9547 15.6949 5.05767L14.6859 6.06676C14.7159 5.662 14.8884 5.27747 15.1855 4.98036ZM12.0628 5.05767C11.9599 4.9547 11.793 4.9547 11.6899 5.05767C11.587 5.16064 11.587 5.3276 11.6899 5.43054L12.6991 6.43966C12.2942 6.40957 11.9097 6.23705 11.6127 5.93998C11.2278 5.55513 11.051 5.02364 11.1236 4.4913C11.656 4.4186 12.1874 4.5955 12.5723 4.98036C12.8694 5.27747 13.0418 5.662 13.072 6.06676L12.0628 5.05767ZM11.1885 9.05363L12.5689 10.4339C11.9856 10.4355 11.4229 10.2083 10.9986 9.784C10.4907 9.27614 10.264 8.57016 10.3756 7.86781C11.0779 7.75619 11.784 7.98288 12.2918 8.49075C12.7162 8.91508 12.9434 9.47776 12.9418 10.061L11.5615 8.68073C11.4585 8.57776 11.2916 8.57776 11.1886 8.68073C11.0856 8.78374 11.0856 8.9507 11.1885 9.05363Z" fill="#52B788"/>
<path d="M5.34406 13.1285C5.67302 13.362 6.0584 13.4807 6.44628 13.4807C6.68759 13.4807 6.92968 13.4339 7.15984 13.341L7.63864 13.6808V14.2559C7.63864 14.4016 7.75666 14.5196 7.90231 14.5196C8.04796 14.5196 8.16598 14.4016 8.16598 14.2559V13.6808L8.64477 13.341C8.87494 13.4339 9.11699 13.4807 9.35834 13.4807C9.74615 13.4807 10.1316 13.362 10.4606 13.1285C10.5471 13.0671 10.6289 12.9982 10.7036 12.9238C11.1676 12.4618 11.0967 11.8625 10.8206 11.4735C10.5444 11.0844 10.002 10.8196 9.41294 11.1052C9.31816 11.1511 9.22615 11.2055 9.13949 11.267C8.60572 11.6459 8.30833 12.2648 8.33909 12.9113L8.16602 13.0341V11.4762C8.71104 11.1271 9.04362 10.5264 9.04362 9.87182C9.04362 9.76551 9.0348 9.65895 9.0174 9.55517C8.90926 8.90942 8.37945 8.62036 7.90234 8.62036C7.42524 8.62036 6.89543 8.90942 6.78729 9.55517C6.76989 9.65902 6.76107 9.76554 6.76107 9.87182C6.76107 10.5264 7.09361 11.1271 7.63867 11.4762V13.0341L7.4656 12.9113C7.49636 12.2648 7.19894 11.6459 6.66516 11.267C6.5785 11.2055 6.48653 11.1511 6.39175 11.1051C5.80264 10.8197 5.26018 11.0844 4.98409 11.4734C4.70798 11.8625 4.63707 12.4618 5.1011 12.9238C5.17577 12.9982 5.25754 13.0671 5.34406 13.1285ZM9.44461 11.6972C9.50754 11.6525 9.57423 11.613 9.64286 11.5798C9.97611 11.4184 10.2538 11.5861 10.3905 11.7787C10.5272 11.9714 10.5938 12.289 10.3315 12.5501C10.2774 12.604 10.2181 12.6539 10.1553 12.6985C9.8738 12.8983 9.53504 12.9816 9.20383 12.9442L9.92007 12.4359C10.0388 12.3516 10.0668 12.187 9.98247 12.0682C9.89816 11.9495 9.73363 11.9215 9.61484 12.0058L8.89864 12.5141C8.97271 12.1891 9.16315 11.8969 9.44461 11.6972ZM7.28834 9.87185C7.28834 9.79469 7.29474 9.71748 7.30733 9.64235C7.30733 9.64235 7.30733 9.64232 7.30736 9.64228C7.36846 9.27726 7.66602 9.14774 7.90227 9.14774C8.13852 9.14774 8.43609 9.27729 8.49722 9.64235C8.50981 9.71748 8.51621 9.79469 8.51621 9.87185C8.51621 10.2171 8.38813 10.5415 8.16595 10.79V9.91172C8.16595 9.7661 8.04793 9.64805 7.90227 9.64805C7.75662 9.64805 7.6386 9.7661 7.6386 9.91172V10.79C7.41645 10.5415 7.28834 10.2171 7.28834 9.87185ZM5.41406 11.7787C5.51225 11.6404 5.68314 11.5149 5.89506 11.5149C5.97828 11.5149 6.06782 11.5343 6.16172 11.5798C6.23035 11.613 6.29704 11.6525 6.35994 11.6971C6.64143 11.8969 6.83187 12.1892 6.90591 12.5141L6.18971 12.0058C6.07092 11.9215 5.90631 11.9495 5.82208 12.0682C5.73781 12.187 5.76572 12.3516 5.88448 12.4359L6.60075 12.9442C6.26955 12.9816 5.93078 12.8983 5.64929 12.6985C5.5865 12.6539 5.52719 12.604 5.47305 12.5501C5.21075 12.289 5.27733 11.9713 5.41406 11.7787Z" fill="#52B788"/>
<path d="M7.2099 6.11855L7.63866 5.68975V7.72505C7.63866 7.87067 7.75668 7.98873 7.90233 7.98873C8.04799 7.98873 8.16601 7.87067 8.16601 7.72505V5.68975L8.59477 6.11855C8.64628 6.17002 8.71378 6.19579 8.78124 6.19579C8.84871 6.19579 8.91621 6.17006 8.96771 6.11855C9.07068 6.01558 9.07068 5.84862 8.96771 5.74569L8.0888 4.86678C7.9858 4.76381 7.81887 4.76381 7.7159 4.86678L6.837 5.74569C6.73402 5.84866 6.73402 6.01562 6.837 6.11855C6.93997 6.22153 7.10689 6.22153 7.2099 6.11855Z" fill="#52B788"/>
<path d="M13.1865 2.00527L13.6152 1.57647V3.61177C13.6152 3.75739 13.7332 3.87544 13.8789 3.87544C14.0246 3.87544 14.1426 3.75739 14.1426 3.61177V1.57647L14.5713 2.00527C14.6228 2.05674 14.6903 2.08251 14.7578 2.08251C14.8253 2.08251 14.8928 2.05678 14.9443 2.00527C15.0472 1.9023 15.0472 1.73534 14.9443 1.63241L14.0654 0.753499C13.9624 0.650526 13.7954 0.650526 13.6925 0.753499L12.8136 1.63241C12.7106 1.73538 12.7106 1.90233 12.8136 2.00527C12.9165 2.10825 13.0835 2.10825 13.1865 2.00527Z" fill="#52B788"/>
<path d="M3.21096 15.5203C3.32532 15.544 3.4406 15.5559 3.55518 15.5559C3.9966 15.5559 4.42681 15.3828 4.74915 15.0605C4.81581 14.9938 4.87709 14.9215 4.9313 14.8454C5.22281 14.4366 5.17577 13.9004 4.81686 13.5415C4.45792 13.1826 3.92175 13.1355 3.51292 13.4271C3.4367 13.4814 3.36431 13.5427 3.29783 13.6092C2.89181 14.0153 2.72275 14.5923 2.83795 15.1475L2.59376 15.3917L2.34953 15.1475C2.46473 14.5923 2.29567 14.0152 1.88965 13.6092C1.82313 13.5427 1.75078 13.4814 1.67456 13.427C1.26577 13.1355 0.729563 13.1825 0.370617 13.5415C0.011707 13.9004 -0.0353321 14.4366 0.256148 14.8454C0.3105 14.9216 0.371777 14.994 0.438328 15.0604C0.760711 15.3828 1.19081 15.5559 1.63227 15.5559C1.74681 15.5559 1.86212 15.544 1.97652 15.5202L2.33009 15.8738V16.7964H0.263672C0.11802 16.7964 0 16.9144 0 17.0601C0 17.2057 0.11802 17.3237 0.263672 17.3237H3.79688C3.94253 17.3237 4.06055 17.2057 4.06055 17.0601C4.06055 16.9144 3.94253 16.7964 3.79688 16.7964H2.85739V15.8738L3.21096 15.5203ZM3.67073 13.9821C3.71668 13.9361 3.76657 13.8939 3.81909 13.8564C4.06329 13.6823 4.30836 13.7788 4.44396 13.9144C4.57952 14.05 4.6761 14.295 4.50186 14.5393C4.46453 14.5916 4.42227 14.6416 4.37621 14.6876C4.19354 14.8703 3.96042 14.9829 3.71412 15.0171L4.18546 14.5458C4.28843 14.4428 4.28843 14.2758 4.18546 14.1729C4.08248 14.07 3.91556 14.0699 3.81256 14.1729L3.34125 14.6442C3.37542 14.3979 3.48806 14.1647 3.67073 13.9821ZM1.37489 14.1729C1.27188 14.0699 1.10496 14.0699 1.00199 14.1729C0.899016 14.2759 0.899016 14.4428 1.00199 14.5458L1.47329 15.017C1.22702 14.9829 0.993867 14.8702 0.811195 14.6875C0.765246 14.6416 0.722988 14.5917 0.685582 14.5393C0.511418 14.295 0.607957 14.05 0.74352 13.9144C0.82691 13.831 0.951645 13.7624 1.09213 13.7624C1.18013 13.7624 1.27434 13.7893 1.36839 13.8564C1.42091 13.8939 1.4708 13.9361 1.51675 13.9821C1.69942 14.1648 1.81202 14.3979 1.8462 14.6442L1.37489 14.1729Z" fill="#52B788"/>
<path d="M1.9013 11.1459L2.33007 10.7171V12.7524C2.33007 12.898 2.44809 13.0161 2.59374 13.0161C2.73939 13.0161 2.85741 12.898 2.85741 12.7524V10.7171L3.28618 11.1459C3.33768 11.1974 3.40518 11.2231 3.47265 11.2231C3.54011 11.2231 3.60761 11.1974 3.65912 11.1459C3.76209 11.0429 3.76209 10.876 3.65912 10.773L2.78021 9.89412C2.6772 9.79115 2.51028 9.79115 2.40731 9.89412L1.5284 10.773C1.42543 10.876 1.42543 11.043 1.5284 11.1459C1.63137 11.2489 1.7983 11.2489 1.9013 11.1459Z" fill="#52B788"/>
</g>
<defs>
<clipPath id="clip0_1087_7697">
<rect width="18" height="18" fill="white"/>
</clipPath>
</defs>
</svg>
