<svg width="17" height="16" viewBox="0 0 17 16" fill="none" xmlns="http://www.w3.org/2000/svg">
<path d="M12.526 3.43458C12.535 3.43559 12.5439 3.4361 12.5528 3.4361C12.6717 3.4361 12.7741 3.34677 12.7878 3.22588L12.8056 3.06788C12.8057 3.06671 12.8058 3.06558 12.8059 3.06444C12.8076 3.04702 13.031 1.29974 14.9801 0.45624C15.1001 0.404319 15.1553 0.264967 15.1033 0.144995C15.0514 0.0249915 14.9119 -0.0302442 14.7921 0.021772C12.9404 0.823069 12.3909 2.45322 12.3349 3.01643L12.3172 3.17283C12.3026 3.30274 12.3961 3.41994 12.526 3.43458Z" fill="#52B788"/>
<path d="M2.40779 3.39248C2.50564 4.00866 3.08713 4.43514 3.70391 4.3432C3.73455 4.33862 3.76602 4.33395 3.79787 4.32918L2.96021 4.92178C2.71336 5.09642 2.65462 5.43929 2.82926 5.68618C3.0371 5.97997 3.36728 6.13687 3.70245 6.13687C3.9156 6.13687 4.13077 6.07337 4.31762 5.94121L4.71721 5.6585L4.62596 5.791C4.45451 6.04001 4.51754 6.38215 4.76655 6.55367C4.94677 6.6778 5.15575 6.74238 5.36994 6.74238C5.43496 6.74238 5.50045 6.73642 5.56576 6.72439C5.84626 6.67269 6.08984 6.51484 6.2516 6.27995L8.02832 3.70032C8.45907 3.63634 8.85045 3.57823 9.16874 3.53098C9.59348 3.46792 10.0165 3.64293 10.2729 3.9876C10.5278 4.33051 10.5771 4.78549 10.4015 5.17501L10.1678 5.69335C9.91057 6.26417 9.97537 6.93628 10.337 7.44741C10.4886 7.66179 10.7146 7.80427 10.9735 7.84861C11.0295 7.85824 11.0858 7.86297 11.1415 7.86297C11.3431 7.86297 11.5393 7.80095 11.7072 7.68215C11.87 7.56697 11.9381 7.3549 11.8727 7.16644L11.7528 6.82072C11.6685 6.57772 11.6998 6.31413 11.8386 6.09764L12.1816 5.56286C12.4178 5.18695 12.5972 4.77164 12.6633 4.33079C12.6779 4.20091 12.5844 4.08371 12.4545 4.06904C12.3249 4.05423 12.2075 4.14782 12.1928 4.27777C12.1324 4.64601 11.981 4.99236 11.7831 5.30726L11.4401 5.84204C11.2224 6.18154 11.1734 6.59482 11.3055 6.97589L11.4198 7.30525C11.3114 7.37677 11.1821 7.40404 11.0534 7.38195C10.9193 7.35897 10.8021 7.28515 10.7235 7.17401C10.4584 6.79923 10.4108 6.30643 10.5995 5.8879L10.8331 5.3696C11.0793 4.82359 11.0102 4.18579 10.6528 3.70511C10.2922 3.22014 9.69698 2.97405 9.09917 3.06267C7.7363 3.265 5.03389 3.66635 3.63412 3.87496C3.27988 3.92748 2.94582 3.68857 2.879 3.33898L4.19784 3.03992C4.32535 3.01101 4.40527 2.88418 4.37636 2.7567C4.34745 2.62918 4.22063 2.54927 4.09314 2.57818L2.74113 2.88475C2.51706 2.93557 2.36979 3.1531 2.4058 3.38014L2.40779 3.39248ZM4.04422 5.55466C3.77663 5.74391 3.40503 5.68022 3.21578 5.41272C3.19195 5.37901 3.19997 5.33214 3.23368 5.30827C3.26574 5.28091 4.82737 4.17594 4.82737 4.17594C5.28936 4.10723 5.79485 4.03208 6.3032 3.95655L4.04422 5.55466ZM5.8617 6.01138C5.77165 6.14214 5.63608 6.22999 5.47997 6.25874C5.32383 6.28759 5.16588 6.25378 5.03515 6.16377C5.00112 6.14031 4.99248 6.09354 5.01593 6.05951L5.83847 4.86528C5.87622 4.83287 7.33046 3.80391 7.33046 3.80391C7.33046 3.80391 7.36884 3.79819 7.38797 3.79535L5.8617 6.01138Z" fill="#52B788"/>
<path d="M5.22516 2.80077C5.24249 2.80077 5.2601 2.79881 5.27775 2.79483L6.10931 2.60624C6.82293 2.44445 7.51883 2.20081 8.17762 1.88209L9.90148 1.04815C10.2604 0.874524 10.6043 0.665259 10.9234 0.426199C11.028 0.347828 11.0493 0.199449 10.971 0.0948165C10.8926 -0.00978419 10.7442 -0.0311209 10.6396 0.0472507C10.3447 0.268162 10.027 0.461518 9.69531 0.621955L7.97142 1.45592C7.34492 1.75902 6.6832 1.9907 6.00459 2.14453L5.17302 2.33313C5.04551 2.36204 4.96559 2.48886 4.9945 2.61634C5.01943 2.72621 5.11703 2.80077 5.22516 2.80077Z" fill="#52B788"/>
<path d="M9.63476 9.34283C9.69723 9.34283 9.76073 9.335 9.82395 9.31865C10.0196 9.26809 10.1838 9.14439 10.2864 8.97029C10.389 8.79619 10.4176 8.59257 10.3671 8.39697C10.3033 8.15015 10.1359 7.90935 9.86963 7.68125C9.68151 7.52011 9.50911 7.42309 9.50188 7.41905C9.39144 7.35728 9.2519 7.39336 9.18524 7.50089C9.18085 7.50796 9.07707 7.67632 8.99059 7.90844C8.86819 8.23698 8.83845 8.52869 8.90221 8.77551V8.77554C8.9903 9.11617 9.2982 9.34283 9.63476 9.34283ZM9.47553 7.97059C9.64878 8.10407 9.85416 8.30446 9.90867 8.51543C9.92761 8.58863 9.91691 8.66479 9.87853 8.72993C9.84011 8.79505 9.77869 8.84135 9.7055 8.86026C9.55453 8.89949 9.39971 8.80821 9.36064 8.65709C9.3061 8.44609 9.38866 8.1712 9.47553 7.97059Z" fill="#52B788"/>
<path d="M7.4283 7.23289C7.41997 7.23255 7.22223 7.22876 6.97837 7.2721C6.63316 7.33342 6.36674 7.45592 6.18648 7.63615C6.04359 7.77903 5.9649 7.96901 5.9649 8.17108C5.9649 8.37312 6.04359 8.5631 6.18648 8.70598C6.33397 8.85348 6.52765 8.92721 6.72138 8.92718C6.91509 8.92718 7.10882 8.85345 7.25628 8.70598C7.43654 8.52572 7.55904 8.2593 7.62037 7.91406C7.6637 7.67017 7.65976 7.47243 7.65957 7.46413C7.6567 7.33768 7.55481 7.23577 7.4283 7.23289ZM6.92152 8.37122C6.81118 8.48163 6.63158 8.48157 6.52124 8.37122C6.46777 8.31779 6.43835 8.24671 6.43835 8.17111C6.43835 8.09549 6.4678 8.02444 6.52124 7.97097C6.67524 7.81694 6.95375 7.74851 7.17062 7.72149C7.14332 7.93739 7.07476 8.21798 6.92152 8.37122Z" fill="#52B788"/>
<path d="M8.0804 11.6726C8.57332 11.6726 8.97437 11.2716 8.97437 10.7787C8.97437 10.0591 8.27376 9.38142 8.2439 9.35295C8.15243 9.26549 8.00837 9.26549 7.91684 9.35295C7.88701 9.38142 7.1864 10.0591 7.1864 10.7787C7.18643 11.2716 7.58744 11.6726 8.0804 11.6726ZM8.0804 9.87469C8.26697 10.1013 8.50095 10.4596 8.50095 10.7787C8.50095 11.0106 8.31229 11.1992 8.08043 11.1992C7.84857 11.1992 7.65991 11.0105 7.65991 10.7787C7.65988 10.4595 7.89389 10.1012 8.0804 9.87469Z" fill="#52B788"/>
<path d="M8.13358 6.71438C8.25112 6.76659 8.37403 6.7913 8.49504 6.7913C8.83785 6.7913 9.16557 6.59312 9.31341 6.26016C9.60544 5.60254 9.24016 4.69882 9.22444 4.66066C9.17637 4.54365 9.04475 4.48507 8.9255 4.52793C8.88671 4.54185 7.97138 4.87693 7.67932 5.53455C7.47927 5.98505 7.68305 6.51434 8.13358 6.71438ZM8.11202 5.72668C8.24153 5.43503 8.60084 5.2025 8.86323 5.07114C8.94176 5.35394 9.01019 5.77636 8.88071 6.06797C8.78656 6.27988 8.53762 6.37565 8.32571 6.28168C8.11379 6.18759 8.01793 5.93859 8.11202 5.72668Z" fill="#52B788"/>
<path d="M15.9238 11.614H15.4074C16.0165 11.0659 16.292 10.2224 16.1005 9.40377L16.0164 9.0442C15.999 8.96993 15.9469 8.9086 15.8765 8.87944C15.8061 8.85024 15.7259 8.85675 15.661 8.89702L15.3473 9.09176C15.06 9.2701 14.8233 9.50477 14.6457 9.77476C14.4656 9.50026 14.2281 9.26801 13.9441 9.09176L13.6304 8.89702C13.5656 8.85678 13.4854 8.85027 13.415 8.87944C13.3445 8.9086 13.2924 8.96993 13.275 9.0442L13.1909 9.40377C12.9966 10.2344 13.2829 11.091 13.9109 11.6383C13.6679 11.695 13.454 11.8498 13.3266 12.0705L12.9066 12.7979C12.7948 12.9915 12.5946 13.1071 12.371 13.1071C12.1474 13.1071 11.9472 12.9915 11.8354 12.7979L11.4154 12.0705C11.2529 11.7889 10.95 11.614 10.6248 11.614H9.87833C9.5532 11.614 9.25029 11.7889 9.0877 12.0705L8.66772 12.7979C8.55593 12.9915 8.35569 13.1071 8.13213 13.1071C7.90856 13.1071 7.70836 12.9915 7.59659 12.7979L7.17661 12.0705C7.01406 11.7889 6.71109 11.614 6.38598 11.614H5.60792C5.28278 11.614 4.97984 11.7889 4.81729 12.0705L4.39731 12.7979C4.28551 12.9915 4.08534 13.1071 3.86177 13.1071C3.63821 13.1071 3.43801 12.9915 3.32621 12.7979L2.90623 12.0705C2.76861 11.8321 2.53022 11.6706 2.26303 11.6266C2.41359 11.4933 2.54574 11.3409 2.65751 11.1701C2.72913 11.0608 2.69848 10.914 2.58911 10.8424C2.47971 10.7708 2.33301 10.8015 2.26139 10.9108C2.10982 11.1432 1.90889 11.3333 1.67031 11.4757C1.47045 10.6998 1.80972 9.8805 2.49973 9.47321C2.54117 9.63882 2.56115 9.80967 2.5554 9.97977C2.55127 10.1104 2.65385 10.2197 2.78452 10.2238C2.91462 10.2284 3.0245 10.1254 3.0286 9.99473C3.03488 9.79641 3.01506 9.59757 2.9697 9.40374L2.88555 9.04417C2.8682 8.9699 2.81612 8.90857 2.74563 8.87941C2.67519 8.85015 2.59495 8.85668 2.53022 8.89699L2.21645 9.09173C1.92916 9.27007 1.6925 9.50474 1.51489 9.77473C1.33479 9.50022 1.09724 9.26798 0.813332 9.09173L0.499593 8.89699C0.434826 8.85678 0.354592 8.85018 0.284174 8.87941C0.213725 8.90857 0.161646 8.9699 0.144254 9.04417L0.0601066 9.40374C-0.131419 10.2223 0.144128 11.0658 0.753236 11.614H0.236861C0.106126 11.614 0.000136421 11.7199 0.000136421 11.8507C0.000136421 11.9815 0.106126 12.0874 0.236861 12.0874H2.1156C2.27209 12.0874 2.41795 12.1716 2.49622 12.3072L2.9162 13.0346C3.11357 13.3764 3.46708 13.5805 3.86177 13.5805C4.25647 13.5805 4.60998 13.3764 4.80735 13.0346L5.22733 12.3072C5.30557 12.1716 5.45143 12.0874 5.60795 12.0874H6.38602C6.54254 12.0874 6.68839 12.1716 6.76664 12.3072L7.18662 13.0346C7.38395 13.3764 7.73746 13.5805 8.13219 13.5805C8.52692 13.5805 8.88043 13.3764 9.07779 13.0346L9.49777 12.3072C9.57602 12.1716 9.72187 12.0874 9.8784 12.0874H10.6249C10.7814 12.0874 10.9272 12.1716 11.0055 12.3072L11.4255 13.0346C11.6229 13.3764 11.9763 13.5805 12.3711 13.5805C12.7658 13.5805 13.1193 13.3764 13.3166 13.0346L13.7367 12.3071C13.8149 12.1716 13.9608 12.0874 14.1173 12.0874H15.9238C16.0546 12.0874 16.1606 11.9815 16.1606 11.8507C16.1606 11.7199 16.0546 11.614 15.9238 11.614ZM0.521151 9.51162L0.530147 9.47314C0.854617 9.66625 1.10889 9.95066 1.26093 10.2954C1.14898 10.6257 1.11252 10.9827 1.16245 11.34C0.615967 10.9108 0.360084 10.2 0.521151 9.51162ZM15.597 9.49401L15.6305 9.47318C15.8304 10.2491 15.491 11.0684 14.8011 11.4757C14.6055 10.7129 14.927 9.90881 15.597 9.49401ZM13.6519 9.51162L13.6609 9.47314C13.9854 9.66628 14.2397 9.95066 14.3917 10.2954C14.2797 10.6257 14.2433 10.9827 14.2932 11.34C13.7467 10.9108 13.4908 10.2 13.6519 9.51162Z" fill="#52B788"/>
<path d="M0.959076 14.575C1.08981 14.575 1.1958 14.469 1.1958 14.3383C1.1958 14.2075 1.08981 14.1016 0.959076 14.1016C0.828336 14.1016 0.722351 14.2075 0.722351 14.3383C0.722351 14.469 0.828336 14.575 0.959076 14.575Z" fill="#52B788"/>
<path d="M1.48715 13.7742C1.61789 13.7742 1.72388 13.6682 1.72388 13.5375C1.72388 13.4068 1.61789 13.3008 1.48715 13.3008C1.35641 13.3008 1.25043 13.4068 1.25043 13.5375C1.25043 13.6682 1.35641 13.7742 1.48715 13.7742Z" fill="#52B788"/>
<path d="M1.94785 14.6331C2.07858 14.6331 2.18457 14.5271 2.18457 14.3964C2.18457 14.2657 2.07858 14.1597 1.94785 14.1597C1.81711 14.1597 1.71112 14.2657 1.71112 14.3964C1.71112 14.5271 1.81711 14.6331 1.94785 14.6331Z" fill="#52B788"/>
<path d="M4.43228 15.1089C4.56302 15.1089 4.66901 15.003 4.66901 14.8722C4.66901 14.7415 4.56302 14.6355 4.43228 14.6355C4.30154 14.6355 4.19556 14.7415 4.19556 14.8722C4.19556 15.003 4.30154 15.1089 4.43228 15.1089Z" fill="#52B788"/>
<path d="M5.47104 14.034C5.60178 14.034 5.70776 13.928 5.70776 13.7973C5.70776 13.6665 5.60178 13.5605 5.47104 13.5605C5.3403 13.5605 5.23431 13.6665 5.23431 13.7973C5.23431 13.928 5.3403 14.034 5.47104 14.034Z" fill="#52B788"/>
<path d="M8.57529 15.3394C8.70603 15.3394 8.81201 15.2334 8.81201 15.1027C8.81201 14.972 8.70603 14.866 8.57529 14.866C8.44455 14.866 8.33856 14.972 8.33856 15.1027C8.33856 15.2334 8.44455 15.3394 8.57529 15.3394Z" fill="#52B788"/>
<path d="M9.61679 13.8311C9.74753 13.8311 9.85351 13.7251 9.85351 13.5944C9.85351 13.4637 9.74753 13.3577 9.61679 13.3577C9.48605 13.3577 9.38007 13.4637 9.38007 13.5944C9.38007 13.7251 9.48605 13.8311 9.61679 13.8311Z" fill="#52B788"/>
<path d="M10.4966 13.3755C10.6274 13.3755 10.7333 13.2696 10.7333 13.1388C10.7333 13.0081 10.6274 12.9021 10.4966 12.9021C10.3659 12.9021 10.2599 13.0081 10.2599 13.1388C10.2599 13.2696 10.3659 13.3755 10.4966 13.3755Z" fill="#52B788"/>
<path d="M10.5271 14.3047C10.6578 14.3047 10.7638 14.1988 10.7638 14.068C10.7638 13.9373 10.6578 13.8313 10.5271 13.8313C10.3963 13.8313 10.2903 13.9373 10.2903 14.068C10.2903 14.1988 10.3963 14.3047 10.5271 14.3047Z" fill="#52B788"/>
<path d="M14.2046 14.7317C14.3353 14.7317 14.4413 14.6258 14.4413 14.495C14.4413 14.3643 14.3353 14.2583 14.2046 14.2583C14.0738 14.2583 13.9678 14.3643 13.9678 14.495C13.9678 14.6258 14.0738 14.7317 14.2046 14.7317Z" fill="#52B788"/>
<path d="M14.9842 14.0196C15.1149 14.0196 15.2209 13.9136 15.2209 13.7829C15.2209 13.6521 15.1149 13.5461 14.9842 13.5461C14.8534 13.5461 14.7474 13.6521 14.7474 13.7829C14.7474 13.9136 14.8534 14.0196 14.9842 14.0196Z" fill="#52B788"/>
</svg>
