<svg width="20" height="25" viewBox="0 0 20 25" fill="none" xmlns="http://www.w3.org/2000/svg">
<path d="M8.75 20H10L15 12.5H11.25V7.5H10L5 15H8.75V20ZM10 25C7.14583 25 4.76583 24.0208 2.86 22.0625C0.954167 20.1042 0.000833333 17.6667 0 14.75C0 12.6667 0.828333 10.4012 2.485 7.95375C4.14167 5.50625 6.64667 2.855 10 0C13.3542 2.85417 15.8596 5.50542 17.5163 7.95375C19.1729 10.4021 20.0008 12.6675 20 14.75C20 17.6667 19.0471 20.1042 17.1412 22.0625C15.2354 24.0208 12.855 25 10 25Z" fill="#FFB648"/>
</svg>
