<svg width="16" height="16" viewBox="0 0 16 16" fill="none" xmlns="http://www.w3.org/2000/svg">
<path d="M9.60002 2.72H11.52C11.9618 2.72 12.32 2.36182 12.32 1.92V0.8C12.32 0.358176 11.9618 0 11.52 0H7.20002C6.7582 0 6.40002 0.358176 6.40002 0.8V3.36H9.60002V2.72Z" fill="#52B788"/>
<path d="M4.80008 14.7201V13.6001H8.32008V14.7201H9.44008V13.6001H13.1201V14.7201H13.6001C13.9535 14.7201 14.2401 15.0067 14.2401 15.3601C14.2401 15.7135 13.9535 16.0001 13.6001 16.0001H4.16008C3.80662 16.0001 3.52008 15.7135 3.52008 15.3601C3.52008 15.0067 3.80662 14.7201 4.16008 14.7201H4.80008Z" fill="#52B788"/>
<path d="M0.64 5.28015C0.993456 5.28015 1.28 5.5667 1.28 5.92015V7.84015H2.4V6.40015C2.4 5.2963 3.14522 4.36651 4.16 4.08643V12.8739C3.14522 12.5938 2.4 11.664 2.4 10.5602V9.12015H1.28V11.0402C1.28 11.3936 0.993456 11.6802 0.64 11.6802C0.286544 11.6802 0 11.3936 0 11.0402V5.92015C0 5.5667 0.286544 5.28015 0.64 5.28015Z" fill="#52B788"/>
<path fill-rule="evenodd" clip-rule="evenodd" d="M4.79999 12.96V4H13.12V12.96C10.3467 12.96 7.57332 12.96 4.79999 12.96ZM6.23999 6.24C6.06325 6.24 5.91999 6.38326 5.91999 6.56C5.91999 6.73674 6.06325 6.88 6.23999 6.88H8.63999C8.81672 6.88 8.95999 6.73674 8.95999 6.56C8.95999 6.38326 8.81672 6.24 8.63999 6.24H6.23999ZM6.23999 8.16C6.06325 8.16 5.91999 8.30326 5.91999 8.48C5.91999 8.65674 6.06325 8.8 6.23999 8.8H8.63999C8.81672 8.8 8.95999 8.65674 8.95999 8.48C8.95999 8.30326 8.81672 8.16 8.63999 8.16H6.23999ZM5.91999 10.4C5.91999 10.2233 6.06325 10.08 6.23999 10.08H8.63999C8.81672 10.08 8.95999 10.2233 8.95999 10.4C8.95999 10.5767 8.81672 10.72 8.63999 10.72H6.23999C6.06325 10.72 5.91999 10.5767 5.91999 10.4Z" fill="#52B788"/>
<path d="M13.76 12.8135C15.0582 12.4057 16 11.1928 16 9.75999V7.19999C16 5.76714 15.0582 4.55424 13.76 4.14648V12.8135Z" fill="#52B788"/>
</svg>
