<svg width="18" height="18" viewBox="0 0 18 18" fill="none" xmlns="http://www.w3.org/2000/svg">
<path fill-rule="evenodd" clip-rule="evenodd" d="M14.9725 0.774994C15.0021 0.903037 15.0062 1.03566 14.9845 1.16529C14.9629 1.29492 14.9159 1.41901 14.8462 1.53046C14.7766 1.64191 14.6856 1.73854 14.5786 1.81481C14.4716 1.89109 14.3505 1.94552 14.2225 1.97499L11.9985 2.48699V6.99999H15.9985C16.5289 6.99999 17.0376 7.21071 17.4127 7.58578C17.7877 7.96085 17.9985 8.46956 17.9985 8.99999V16C17.9985 16.5304 17.7877 17.0391 17.4127 17.4142C17.0376 17.7893 16.5289 18 15.9985 18H2.99846C2.46803 18 1.95932 17.7893 1.58425 17.4142C1.20917 17.0391 0.998459 16.5304 0.998459 16V4.99999C0.753119 4.99962 0.516478 4.90906 0.333562 4.74555C0.150646 4.58205 0.0342202 4.35701 0.00643568 4.11324C-0.0213488 3.86948 0.0414474 3.62401 0.182876 3.42354C0.324305 3.22306 0.534497 3.08157 0.773459 3.02599L13.7735 0.0259937C13.9015 -0.003639 14.0341 -0.00774087 14.1638 0.0139225C14.2934 0.0355859 14.4175 0.0825896 14.5289 0.152246C14.6404 0.221902 14.737 0.312844 14.8133 0.419872C14.8896 0.5269 14.944 0.647914 14.9735 0.775994M15.9985 8.99999H6.99846V16H8.99846V13C8.9983 12.4954 9.18887 12.0094 9.53196 11.6394C9.87505 11.2695 10.3453 11.0428 10.8485 11.005L10.9985 11H11.9985C12.503 10.9998 12.989 11.1904 13.359 11.5335C13.729 11.8766 13.9556 12.3468 13.9935 12.85L13.9985 13V16H15.9985V8.99999ZM11.9985 13H10.9985V16H11.9985V13ZM4.99846 4.10299L2.99846 4.56499V16H4.99846V4.10299ZM9.99846 2.94899L6.99846 3.64199V6.99999H9.99846V2.94899Z" fill="#52B788"/>
</svg>
