<svg width="24" height="24" viewBox="0 0 24 24" fill="none" xmlns="http://www.w3.org/2000/svg">
<g clip-path="url(#clip0_1708_8883)">
<path d="M12.8598 7.85541V9.0715C12.5131 9.09784 12.1678 9.14425 11.8256 9.20973C12.8498 9.97994 13.0787 11.4416 12.3076 12.4909L11.118 14.2968H14.2675C15.098 14.2968 15.9044 14.0014 16.5383 13.465C19.022 11.3634 19.2144 11.2002 19.2644 11.1591C17.9205 9.88155 16.076 9.21025 14.2659 9.07211V7.85541C14.9605 7.3193 16.5159 5.95631 16.5159 4.49994C16.5159 3.7355 16.1035 2.80076 15.2551 1.64237C14.6718 0.846011 14.0947 0.241789 14.0704 0.216476C13.7937 -0.0721821 13.3319 -0.0721352 13.0553 0.216476C13.0309 0.241789 12.4539 0.846011 11.8706 1.64237C11.0221 2.80076 10.6097 3.7355 10.6097 4.49994C10.6097 5.95631 12.1652 7.3193 12.8598 7.85541Z" fill="#22B573"/>
<path d="M21.6131 12.0365C21.1165 11.8237 20.5561 11.9076 20.1469 12.2539L17.4468 14.5386C16.5592 15.2896 15.4302 15.7032 14.2675 15.7032H9.81285C9.25536 15.7032 8.91711 15.0816 9.22569 14.6132C11.2794 11.4955 11.1488 11.6925 11.1687 11.666C11.5265 11.1889 11.3627 10.5065 10.8324 10.2413C10.4269 10.0386 9.93337 10.1505 9.65479 10.5071L5.88494 15.7838C5.83478 15.854 5.77211 15.9144 5.70006 15.9619L1.11922 18.9844C0.80169 19.1939 0.708361 19.6179 0.908565 19.9414C1.63424 21.1136 3.20498 23.651 3.21928 23.6735C3.40725 23.9724 3.80185 24.0912 4.13176 23.9236L9.27215 21.3075L16.224 20.4385C17.6449 20.2609 18.9308 19.4862 19.7521 18.3131L23.0696 13.5737C23.3264 13.2068 23.1793 12.6965 22.7666 12.5226L21.6131 12.0365Z" fill="#22B573"/>
</g>
<defs>
<clipPath id="clip0_1708_8883">
<rect width="24" height="24" fill="white"/>
</clipPath>
</defs>
</svg>
