<svg width="19" height="19" viewBox="0 0 19 19" fill="none" xmlns="http://www.w3.org/2000/svg">
<path d="M8.49999 6C10.1667 3.5 6.83333 3.5 8.49999 1M12.25 6C13.9167 3.5 10.5833 3.5 12.25 1M4.33333 7.66667H4.34166M4.33333 11H4.34166M7.66666 12.6667V9.33333M11 12.6667V9.33333M14.3333 12.6667V9.33333" stroke="#52B788" stroke-width="1.5" stroke-linecap="round" stroke-linejoin="round"/>
<path d="M16 4.33325C16.442 4.33325 16.866 4.50885 17.1785 4.82141C17.4911 5.13397 17.6667 5.55789 17.6667 5.99992V14.3333C17.6667 14.7753 17.4911 15.1992 17.1785 15.5118C16.866 15.8243 16.442 15.9999 16 15.9999H2.66667C2.22464 15.9999 1.80072 15.8243 1.48816 15.5118C1.17559 15.1992 1 14.7753 1 14.3333V5.99992C1 5.55789 1.17559 5.13397 1.48816 4.82141C1.80072 4.50885 2.22464 4.33325 2.66667 4.33325H5.16667M3.5 15.9999V17.6666M15.1667 15.9999V17.6666" stroke="#52B788" stroke-width="1.5" stroke-linecap="round" stroke-linejoin="round"/>
</svg>
