<svg width="21" height="20" viewBox="0 0 21 20" fill="none" xmlns="http://www.w3.org/2000/svg">
<path d="M17.0667 12.142C17.0667 15.627 14.0133 18.3328 10.4 18.3328C6.78666 18.3328 3.73332 15.627 3.73332 12.142C3.73332 9.99951 4.82082 7.87618 5.99666 6.18534C7.18832 4.47284 8.55999 3.08034 9.29832 2.37868M17.0667 12.142L9.29832 2.37868M17.0667 12.142C17.0667 9.99951 15.9792 7.87618 14.8033 6.18534C13.6117 4.47284 12.24 3.08034 11.5017 2.37868C11.205 2.09505 10.8104 1.93677 10.4 1.93677C9.98957 1.93677 9.59497 2.09505 9.29832 2.37868" stroke="#FFB648" stroke-width="2"/>
<path d="M10.4 14.9996C9.51593 14.9996 8.66808 14.6484 8.04296 14.0233C7.41784 13.3982 7.06665 12.5503 7.06665 11.6663" stroke="#FFB648" stroke-width="2" stroke-linecap="round"/>
</svg>
