<svg width="18" height="23" viewBox="0 0 18 23" fill="none" xmlns="http://www.w3.org/2000/svg">
<path d="M3.125 14.5675C3.38333 14.5675 3.60833 14.4717 3.8 14.28C3.99167 14.0883 4.0875 13.8633 4.0875 13.605C4.0875 13.3467 3.99167 13.1217 3.8 12.93C3.60833 12.7392 3.38333 12.6437 3.125 12.6437C2.86667 12.6437 2.64167 12.7396 2.45 12.9312C2.25833 13.1229 2.1625 13.3479 2.1625 13.6063C2.1625 13.8638 2.25833 14.0883 2.45 14.28C2.64167 14.4717 2.86667 14.5675 3.125 14.5675ZM5 10.8175C5.25833 10.8175 5.48333 10.7217 5.675 10.53C5.86667 10.3383 5.9625 10.1133 5.9625 9.855C5.9625 9.59667 5.86667 9.37167 5.675 9.18C5.48333 8.98917 5.25833 8.89375 5 8.89375C4.74167 8.89375 4.51667 8.98958 4.325 9.18125C4.13333 9.37292 4.0375 9.59792 4.0375 9.85625C4.0375 10.1137 4.13333 10.3383 4.325 10.53C4.51667 10.7217 4.74167 10.8175 5 10.8175ZM5 18.3175C5.25833 18.3175 5.48333 18.2217 5.675 18.03C5.86667 17.8383 5.9625 17.6133 5.9625 17.355C5.9625 17.0967 5.86667 16.8717 5.675 16.68C5.48333 16.4892 5.25833 16.3937 5 16.3937C4.74167 16.3937 4.51667 16.4896 4.325 16.6812C4.13333 16.8729 4.0375 17.0979 4.0375 17.3563C4.0375 17.6138 4.13333 17.8383 4.325 18.03C4.51667 18.2217 4.74167 18.3175 5 18.3175ZM6.875 14.5675C7.13333 14.5675 7.35833 14.4717 7.55 14.28C7.74167 14.0883 7.8375 13.8633 7.8375 13.605C7.8375 13.3467 7.74167 13.1217 7.55 12.93C7.35833 12.7392 7.13333 12.6437 6.875 12.6437C6.61667 12.6437 6.39167 12.7396 6.2 12.9312C6.00833 13.1229 5.9125 13.3479 5.9125 13.6063C5.9125 13.8638 6.00833 14.0883 6.2 14.28C6.39167 14.4717 6.61667 14.5675 6.875 14.5675ZM6.875 7.0675C7.13333 7.0675 7.35833 6.97167 7.55 6.78C7.74167 6.58833 7.8375 6.36333 7.8375 6.105C7.8375 5.84667 7.74167 5.62167 7.55 5.43C7.35833 5.23917 7.13333 5.14375 6.875 5.14375C6.61667 5.14375 6.39167 5.23958 6.2 5.43125C6.00833 5.62292 5.9125 5.84792 5.9125 6.10625C5.9125 6.36375 6.00833 6.58833 6.2 6.78C6.39167 6.97167 6.61667 7.0675 6.875 7.0675ZM8.75 10.8175C9.00833 10.8175 9.23333 10.7217 9.425 10.53C9.61667 10.3383 9.7125 10.1133 9.7125 9.855C9.7125 9.59667 9.61667 9.37167 9.425 9.18C9.23333 8.98917 9.00833 8.89375 8.75 8.89375C8.49167 8.89375 8.26667 8.98958 8.075 9.18125C7.88333 9.37292 7.7875 9.59792 7.7875 9.85625C7.7875 10.1137 7.88333 10.3383 8.075 10.53C8.26667 10.7217 8.49167 10.8175 8.75 10.8175ZM8.75 18.3175C9.00833 18.3175 9.23333 18.2217 9.425 18.03C9.61667 17.8383 9.7125 17.6133 9.7125 17.355C9.7125 17.0967 9.61667 16.8717 9.425 16.68C9.23333 16.4892 9.00833 16.3937 8.75 16.3937C8.49167 16.3937 8.26667 16.4896 8.075 16.6812C7.88333 16.8729 7.7875 17.0979 7.7875 17.3563C7.7875 17.6138 7.88333 17.8383 8.075 18.03C8.26667 18.2217 8.49167 18.3175 8.75 18.3175ZM10.625 14.5675C10.8833 14.5675 11.1083 14.4717 11.3 14.28C11.4917 14.0883 11.5875 13.8633 11.5875 13.605C11.5875 13.3467 11.4917 13.1217 11.3 12.93C11.1083 12.7392 10.8833 12.6437 10.625 12.6437C10.3667 12.6437 10.1417 12.7396 9.95 12.9312C9.75833 13.1229 9.6625 13.3479 9.6625 13.6063C9.6625 13.8638 9.75833 14.0883 9.95 14.28C10.1417 14.4717 10.3667 14.5675 10.625 14.5675ZM10.625 7.0675C10.8833 7.0675 11.1083 6.97167 11.3 6.78C11.4917 6.58833 11.5875 6.36333 11.5875 6.105C11.5875 5.84667 11.4917 5.62167 11.3 5.43C11.1083 5.23917 10.8833 5.14375 10.625 5.14375C10.3667 5.14375 10.1417 5.23958 9.95 5.43125C9.75833 5.62292 9.6625 5.84792 9.6625 6.10625C9.6625 6.36375 9.75833 6.58833 9.95 6.78C10.1417 6.97167 10.3667 7.0675 10.625 7.0675ZM12.5 10.8175C12.7583 10.8175 12.9833 10.7217 13.175 10.53C13.3667 10.3383 13.4625 10.1133 13.4625 9.855C13.4625 9.59667 13.3667 9.37167 13.175 9.18C12.9833 8.98917 12.7583 8.89375 12.5 8.89375C12.2417 8.89375 12.0167 8.98958 11.825 9.18125C11.6333 9.37292 11.5375 9.59792 11.5375 9.85625C11.5375 10.1137 11.6333 10.3383 11.825 10.53C12.0167 10.7217 12.2417 10.8175 12.5 10.8175ZM12.5 18.3175C12.7583 18.3175 12.9833 18.2217 13.175 18.03C13.3667 17.8383 13.4625 17.6133 13.4625 17.355C13.4625 17.0967 13.3667 16.8717 13.175 16.68C12.9833 16.4892 12.7583 16.3937 12.5 16.3937C12.2417 16.3937 12.0167 16.4896 11.825 16.6812C11.6333 16.8729 11.5375 17.0979 11.5375 17.3563C11.5375 17.6138 11.6333 17.8383 11.825 18.03C12.0167 18.2217 12.2417 18.3175 12.5 18.3175ZM14.375 14.5675C14.6333 14.5675 14.8583 14.4717 15.05 14.28C15.2417 14.0883 15.3375 13.8633 15.3375 13.605C15.3375 13.3467 15.2417 13.1217 15.05 12.93C14.8583 12.7392 14.6333 12.6437 14.375 12.6437C14.1167 12.6437 13.8917 12.7396 13.7 12.9312C13.5083 13.1229 13.4125 13.3479 13.4125 13.6063C13.4125 13.8638 13.5083 14.0883 13.7 14.28C13.8917 14.4717 14.1167 14.5675 14.375 14.5675ZM8.745 22.115C6.24667 22.115 4.165 21.2554 2.5 19.5362C0.833333 17.8162 0 15.6758 0 13.115C0 11.32 0.724167 9.335 2.1725 7.16C3.62083 4.985 5.81333 2.59833 8.75 0C11.6875 2.5975 13.88 4.98417 15.3275 7.16C16.7758 9.335 17.5 11.32 17.5 13.115C17.5 15.6758 16.6654 17.8162 14.9963 19.5362C13.3279 21.2554 11.2433 22.115 8.745 22.115Z" fill="#7468E4"/>
</svg>
