<svg width="13" height="18" viewBox="0 0 13 18" fill="none" xmlns="http://www.w3.org/2000/svg">
<path fill-rule="evenodd" clip-rule="evenodd" d="M6.25001 0.873047C4.20801 0.873047 2.53801 2.52605 2.50401 4.56005C2.50101 4.58105 2.50001 4.60205 2.50001 4.62305V5.29405C2.45762 5.29665 2.41247 5.29828 2.36707 5.29993H2.36706C2.29036 5.30271 2.21296 5.30551 2.14701 5.31305C1.56001 5.37905 1.04301 5.52305 0.662006 5.90405C0.280006 6.28505 0.136006 6.80205 0.0690063 7.39005C0.00578391 7.9533 0.00587605 8.62942 0.00599578 9.50806L0.00600635 9.62505V12.657C0.00200635 12.688 6.34798e-06 12.719 6.34798e-06 12.75L3.14173e-06 12.8291C-5.15963e-05 13.7263 -9.35403e-05 14.4137 0.0650063 14.985C0.131006 15.573 0.275006 16.089 0.657006 16.47C1.03801 16.852 1.55501 16.995 2.14201 17.061C2.7131 17.1251 3.39928 17.1251 4.29491 17.1251L4.37501 17.125H4.38101H8.12501C8.13089 17.125 8.13677 17.1248 8.14276 17.1246C8.14901 17.1243 8.15538 17.124 8.16201 17.124H8.20298C9.09706 17.1241 9.78769 17.1241 10.358 17.06C10.945 16.994 11.461 16.851 11.843 16.469C12.225 16.088 12.369 15.572 12.435 14.984C12.5 14.4057 12.5 13.707 12.5 12.7942V12.7942V12.753V12.749V9.62805V9.62705V9.62505L12.5 9.54599V9.54591C12.5001 8.6488 12.5001 7.96136 12.435 7.39005C12.369 6.80205 12.225 6.28505 11.843 5.90405C11.461 5.52305 10.945 5.37905 10.358 5.31305C10.293 5.30575 10.2172 5.30252 10.142 5.29931L10.1419 5.29931C10.0934 5.29724 10.0451 5.29518 10 5.29205V4.62305C10 4.60005 9.99901 4.57605 9.99601 4.55305C9.95801 2.52205 8.28901 0.873047 6.25001 0.873047ZM6.25001 2.12305C7.63701 2.12305 8.75001 3.23705 8.75001 4.62305V5.25305C8.65622 5.25305 8.5674 5.25234 8.47607 5.25161H8.47604C8.37943 5.25084 8.28003 5.25005 8.16901 5.25005L8.16636 5.24987C8.15235 5.24893 8.13912 5.24805 8.12501 5.24805H4.38101C4.36987 5.24805 4.35873 5.24891 4.34679 5.24983L4.34401 5.25005C4.23033 5.25005 4.12856 5.25084 4.02972 5.25161C3.93639 5.25234 3.84568 5.25305 3.75001 5.25305V4.62305C3.75001 3.23705 4.86301 2.12305 6.25001 2.12305ZM8.08101 6.49805H4.41201L4.41101 6.49905C4.40601 6.49905 4.40101 6.4993 4.39601 6.49955C4.39101 6.4998 4.38601 6.50005 4.38101 6.50005C3.44601 6.50005 2.75301 6.50405 2.28701 6.55605C1.82101 6.60805 1.63401 6.70005 1.54501 6.78805C1.45701 6.87605 1.36501 7.06405 1.31201 7.53005C1.26001 7.99605 1.25601 8.68905 1.25601 9.62505V12.75C1.25601 12.779 1.25501 12.808 1.25101 12.838C1.25101 13.723 1.25501 14.395 1.30601 14.844C1.35901 15.311 1.45101 15.498 1.53901 15.587C1.62801 15.675 1.81501 15.766 2.28101 15.819C2.74701 15.871 3.44001 15.875 4.37501 15.875H4.38101H8.09301C8.09851 15.8745 8.10376 15.8743 8.10901 15.874C8.11426 15.8738 8.11951 15.8735 8.12501 15.873C9.05901 15.873 9.75201 15.871 10.218 15.819C10.684 15.766 10.872 15.674 10.961 15.585C11.049 15.497 11.141 15.309 11.194 14.843C11.246 14.378 11.25 13.686 11.25 12.753V9.62805V9.62605V9.62505C11.25 8.68905 11.246 7.99605 11.194 7.53005C11.141 7.06405 11.049 6.87605 10.961 6.78805C10.872 6.69905 10.684 6.60805 10.218 6.55605C9.75201 6.50405 9.05901 6.50005 8.12501 6.50005C8.11089 6.50005 8.09766 6.49916 8.08365 6.49822L8.08101 6.49805Z" fill="#8A8D90"/>
<path fill-rule="evenodd" clip-rule="evenodd" d="M6.25202 8.99805C5.92002 8.99805 5.60202 9.13005 5.36702 9.36405C5.13202 9.59905 5.00002 9.91805 5.00002 10.25C5.00002 10.47 5.05802 10.686 5.16802 10.876C5.27902 11.066 5.43702 11.224 5.62702 11.334V12.75C5.62602 12.833 5.64102 12.915 5.67202 12.992C5.70302 13.069 5.74902 13.139 5.80702 13.198C5.86502 13.257 5.93502 13.304 6.01102 13.336C6.08802 13.368 6.17002 13.384 6.25202 13.384C6.33502 13.384 6.41702 13.368 6.49402 13.336C6.57002 13.304 6.63902 13.257 6.69702 13.198C6.75602 13.139 6.80102 13.069 6.83202 12.992C6.86302 12.915 6.87902 12.833 6.87702 12.75V11.333C7.06802 11.223 7.22602 11.065 7.33602 10.875C7.44602 10.685 7.50402 10.47 7.50502 10.25C7.50502 9.91805 7.37302 9.59905 7.13802 9.36405C6.90302 9.13005 6.58502 8.99805 6.25202 8.99805Z" fill="#8A8D90"/>
</svg>
