<svg width="15" height="24" viewBox="0 0 15 24" fill="none" xmlns="http://www.w3.org/2000/svg">
<path d="M10.1592 20.1099C10.2372 20.1263 10.3107 20.1601 10.3744 20.2089C10.4381 20.2577 10.4905 20.3203 10.5278 20.3923C10.5651 20.4642 10.5863 20.5437 10.5901 20.625C10.5938 20.7063 10.5799 20.7875 10.5493 20.8626C10.5188 20.9378 10.4723 21.0052 10.4133 21.0598C10.3543 21.1145 10.2843 21.1552 10.2081 21.179C10.1319 21.2027 10.0515 21.209 9.97274 21.1972C9.89393 21.1855 9.81863 21.1562 9.75223 21.1112C9.64762 21.0404 9.57038 20.9346 9.53378 20.8119C9.49717 20.6892 9.50347 20.5574 9.5516 20.4389C9.59974 20.3205 9.6867 20.2229 9.79756 20.1628C9.90843 20.1028 10.0363 20.0841 10.1592 20.1099ZM7.92279 10.6784V11.8159H13.1446C13.5743 11.8164 13.9862 11.9911 14.29 12.3016C14.5938 12.6122 14.7647 13.0333 14.7652 13.4725V14.945C14.7641 15.345 14.6211 15.731 14.3629 16.0314C14.1046 16.3319 13.7486 16.5265 13.3607 16.5791L12.4939 22.1972C12.4356 22.5878 12.2419 22.944 11.9481 23.2008C11.6543 23.4576 11.28 23.5979 10.8935 23.5961H3.871C3.48448 23.5977 3.11026 23.4573 2.81647 23.2006C2.52267 22.9438 2.32883 22.5877 2.27024 22.1972L1.40449 16.5791C1.01662 16.5265 0.660565 16.3319 0.402314 16.0314C0.144063 15.731 0.0011279 15.345 0 14.945V13.4725C0.000476601 13.0333 0.171368 12.6122 0.47518 12.3016C0.778993 11.9911 1.19091 11.8164 1.62057 11.8159H6.84241V7.39831H5.94209C4.65312 7.39685 3.41736 6.87278 2.50592 5.94108C1.59448 5.00938 1.08181 3.74615 1.08038 2.42853V0.956006C1.08038 0.809554 1.13729 0.669101 1.2386 0.565543C1.3399 0.461986 1.4773 0.403809 1.62057 0.403809H3.06108C4.31871 0.405889 5.52666 0.905844 6.43145 1.79876C7.33623 2.69167 7.86751 3.90812 7.91378 5.19283C9.97011 2.07108 13.0697 2.33908 14.4598 2.33908C14.6031 2.33908 14.7405 2.39725 14.8418 2.50081C14.9431 2.60437 15 2.74482 15 2.89127V4.23606C14.9981 5.94407 14.3335 7.58156 13.152 8.7893C11.9705 9.99705 10.3686 10.6764 8.69778 10.6784H7.92279ZM12.2648 16.6016H2.50036L3.04055 20.0989H8.25303C8.39629 20.0989 8.53369 20.157 8.635 20.2606C8.7363 20.3641 8.79321 20.5046 8.79321 20.651C8.79321 20.7975 8.7363 20.938 8.635 21.0415C8.53369 21.1451 8.39629 21.2032 8.25303 21.2032H3.21125C3.31641 21.8839 3.2966 22.4917 3.87208 22.4917H10.8946C11.0233 22.4923 11.148 22.4457 11.2459 22.3602C11.3438 22.2747 11.4084 22.1561 11.4279 22.026L12.2648 16.6016ZM13.1446 12.9203H1.62057C1.4773 12.9203 1.3399 12.9785 1.2386 13.082C1.13729 13.1856 1.08038 13.326 1.08038 13.4725V14.945C1.08038 15.0915 1.13729 15.2319 1.2386 15.3355C1.3399 15.439 1.4773 15.4972 1.62057 15.4972H13.1446C13.2879 15.4972 13.4253 15.439 13.5266 15.3355C13.6279 15.2319 13.6848 15.0915 13.6848 14.945V13.4725C13.6848 13.326 13.6279 13.1856 13.5266 13.082C13.4253 12.9785 13.2879 12.9203 13.1446 12.9203ZM7.92279 8.79279L9.50339 7.17743C9.60472 7.07389 9.74215 7.01574 9.88543 7.01577C10.0287 7.01581 10.1661 7.07402 10.2674 7.17761C10.3687 7.2812 10.4256 7.42168 10.4255 7.56815C10.4255 7.71461 10.3686 7.85506 10.2672 7.95861L8.68662 9.57397C9.3731 9.57474 10.053 9.43728 10.6875 9.16944C11.322 8.9016 11.8987 8.50862 12.3847 8.01295C12.8706 7.51727 13.2562 6.92861 13.5196 6.28057C13.783 5.63252 13.9189 4.9378 13.9196 4.23606V3.44347H13.1446C11.7582 3.44503 10.4292 4.00949 9.44997 5.01267C8.4707 6.01585 7.92136 7.37559 7.92279 8.79279ZM6.07786 6.29391L4.87504 5.06399C4.77664 4.95984 4.72219 4.82035 4.72342 4.67557C4.72465 4.53079 4.78146 4.39229 4.88162 4.28991C4.98177 4.18752 5.11726 4.12945 5.25889 4.12819C5.40053 4.12693 5.53698 4.18259 5.63886 4.28318L6.84241 5.51348C6.86005 4.99441 6.77532 4.47703 6.59327 3.99214C6.41122 3.50724 6.13557 3.06476 5.78274 2.69104C5.42991 2.31731 5.00712 2.01999 4.53954 1.81678C4.07196 1.61358 3.56916 1.50863 3.06108 1.5082H2.16076V2.42853C2.16128 2.94778 2.26398 3.46162 2.46274 3.93947C2.6615 4.41732 2.95226 4.84942 3.31772 5.21005C3.68318 5.57069 4.11587 5.85249 4.59005 6.03869C5.06422 6.22489 5.5702 6.31169 6.07786 6.29391Z" fill="white"/>
</svg>
