<svg width="10" height="15" viewBox="0 0 10 15" fill="none" xmlns="http://www.w3.org/2000/svg">
<path d="M6.57061 12.7452C6.62106 12.7558 6.6686 12.7777 6.70982 12.8093C6.75103 12.8408 6.78491 12.8813 6.80902 12.9279C6.83313 12.9744 6.84688 13.0258 6.84929 13.0784C6.8517 13.131 6.8427 13.1835 6.82294 13.2321C6.80318 13.2807 6.77314 13.3243 6.73499 13.3596C6.69684 13.395 6.6515 13.4213 6.60224 13.4367C6.55298 13.452 6.501 13.4561 6.45003 13.4485C6.39906 13.4409 6.35036 13.4219 6.30741 13.3928C6.23976 13.3471 6.1898 13.2786 6.16612 13.1993C6.14245 13.1199 6.14652 13.0346 6.17765 12.958C6.20879 12.8814 6.26503 12.8183 6.33673 12.7795C6.40844 12.7406 6.49113 12.7285 6.57061 12.7452ZM5.12419 6.64523V7.38095H8.5015C8.77939 7.38126 9.0458 7.49425 9.2423 7.69511C9.4388 7.89597 9.54932 8.16831 9.54963 8.45237V9.40475C9.5489 9.66344 9.45646 9.91309 9.28943 10.1074C9.1224 10.3018 8.89211 10.4276 8.64125 10.4617L8.08062 14.0952C8.04291 14.3479 7.91763 14.5782 7.72762 14.7443C7.53761 14.9104 7.29553 15.0011 7.04553 15H2.50363C2.25365 15.001 2.01161 14.9102 1.82159 14.7442C1.63158 14.5781 1.50621 14.3478 1.46831 14.0952L0.908379 10.4617C0.657516 10.4276 0.427231 10.3018 0.260203 10.1074C0.0931748 9.91309 0.000729488 9.66344 0 9.40475V8.45237C0.00030825 8.16831 0.110835 7.89597 0.307331 7.69511C0.503826 7.49425 0.770243 7.38126 1.04813 7.38095H4.42544V4.52381H3.84314C3.00948 4.52286 2.21023 4.18391 1.62075 3.58132C1.03126 2.97873 0.699678 2.16171 0.698753 1.30952V0.357143C0.698753 0.262422 0.735563 0.171582 0.801083 0.104605C0.866604 0.0376274 0.95547 0 1.04813 0H1.9798C2.79319 0.00134535 3.57446 0.324699 4.15964 0.902205C4.74483 1.47971 5.08844 2.26647 5.11837 3.09738C6.44833 1.07833 8.45305 1.25167 9.35212 1.25167C9.44478 1.25167 9.53364 1.28929 9.59916 1.35627C9.66468 1.42325 9.70149 1.51409 9.70149 1.60881V2.47857C9.70026 3.58325 9.27042 4.64233 8.50628 5.42345C7.74214 6.20458 6.70609 6.64397 5.62543 6.64523H5.12419ZM7.93248 10.4762H1.61715L1.96653 12.7381H5.33778C5.43044 12.7381 5.5193 12.7757 5.58482 12.8427C5.65034 12.9097 5.68715 13.0005 5.68715 13.0952C5.68715 13.1899 5.65034 13.2808 5.58482 13.3478C5.5193 13.4147 5.43044 13.4524 5.33778 13.4524H2.07693C2.14494 13.8926 2.13213 14.2857 2.50433 14.2857H7.04623C7.1295 14.2861 7.21015 14.2559 7.27346 14.2006C7.33678 14.1454 7.37856 14.0687 7.39118 13.9845L7.93248 10.4762ZM8.5015 8.09523H1.04813C0.95547 8.09523 0.866604 8.13286 0.801083 8.19984C0.735563 8.26681 0.698753 8.35765 0.698753 8.45237V9.40475C0.698753 9.49947 0.735563 9.59032 0.801083 9.65729C0.866604 9.72427 0.95547 9.7619 1.04813 9.7619H8.5015C8.59416 9.7619 8.68303 9.72427 8.74855 9.65729C8.81407 9.59032 8.85088 9.49947 8.85088 9.40475V8.45237C8.85088 8.35765 8.81407 8.26681 8.74855 8.19984C8.68303 8.13286 8.59416 8.09523 8.5015 8.09523ZM5.12419 5.42571L6.14647 4.38095C6.21201 4.31398 6.30089 4.27637 6.39356 4.27639C6.48623 4.27642 6.57509 4.31407 6.6406 4.38107C6.70611 4.44807 6.74291 4.53892 6.74288 4.63365C6.74286 4.72838 6.70603 4.81922 6.64049 4.88619L5.61821 5.93095C6.0622 5.93145 6.50194 5.84255 6.91232 5.66931C7.32271 5.49608 7.69569 5.24192 8.00997 4.92133C8.32426 4.60075 8.57369 4.22002 8.74403 3.80089C8.91437 3.38176 9.00228 2.93243 9.00274 2.47857V1.96595H8.5015C7.60483 1.96696 6.74528 2.33203 6.11192 2.98085C5.47856 3.62968 5.12326 4.50911 5.12419 5.42571ZM3.93095 3.80952L3.15301 3.01405C3.08937 2.94669 3.05415 2.85647 3.05495 2.76283C3.05574 2.66919 3.09249 2.57961 3.15726 2.5134C3.22204 2.44718 3.30967 2.40962 3.40127 2.40881C3.49288 2.40799 3.58113 2.44399 3.64703 2.50905L4.42544 3.30476C4.43685 2.96905 4.38205 2.63442 4.2643 2.32081C4.14656 2.0072 3.96828 1.72101 3.74008 1.4793C3.51189 1.23759 3.23844 1.04529 2.93602 0.913865C2.63361 0.782436 2.30841 0.714562 1.9798 0.714285H1.39751V1.30952C1.39785 1.64536 1.46427 1.97769 1.59282 2.28675C1.72137 2.5958 1.90942 2.87527 2.14579 3.10852C2.38215 3.34176 2.66201 3.52402 2.96869 3.64445C3.27537 3.76488 3.60262 3.82102 3.93095 3.80952Z" fill="black"/>
</svg>
