<svg width="24" height="24" viewBox="0 0 24 24" fill="none" xmlns="http://www.w3.org/2000/svg">
<path d="M10.8 24V16.8H15C15.48 16.8 15.9 16.98 16.26 17.34C16.62 17.7 16.8 18.12 16.8 18.6V19.8C16.8 20.28 16.62 20.7 16.26 21.06C15.9 21.42 15.48 21.6 15 21.6H12.6V24H10.8ZM18 24V16.8H19.8V19.2H22.2V16.8H24V24H22.2V21H19.8V24H18ZM12.6 19.8H15V18.6H12.6V19.8ZM8.4 23.94C5.96 23.66 3.95 22.61 2.37 20.79C0.79 18.97 0 16.76 0 14.16C0 12.16 0.7952 9.9852 2.3856 7.6356C3.976 5.286 6.3808 2.7408 9.6 0C12.82 2.74 15.2252 5.2852 16.8156 7.6356C18.406 9.986 19.2008 12.1608 19.2 14.16V14.4H10.8C10.14 14.4 9.5752 14.6352 9.1056 15.1056C8.636 15.576 8.4008 16.1408 8.4 16.8V23.94Z" fill="#D00000"/>
</svg>
