<svg width="20" height="21" viewBox="0 0 20 21" fill="none" xmlns="http://www.w3.org/2000/svg">
<path d="M20 1.05V3.15C20 5.09934 19.2237 6.96884 17.8418 8.34724C16.46 9.72563 14.5858 10.5 12.6316 10.5H11.5789V11.55H16.8421V18.9C16.8421 19.457 16.6203 19.9911 16.2255 20.3849C15.8307 20.7788 15.2952 21 14.7368 21H6.31579C5.75744 21 5.22196 20.7788 4.82714 20.3849C4.43233 19.9911 4.21053 19.457 4.21053 18.9V11.55H9.47368V8.4C9.47368 6.45066 10.25 4.58116 11.6318 3.20277C13.0137 1.82438 14.8879 1.05 16.8421 1.05H20ZM3.68421 2.58222e-06C4.94734 -0.00101834 6.19223 0.300706 7.31406 0.87977C8.43589 1.45884 9.40182 2.29829 10.1305 3.32745C9.01891 4.78579 8.4183 6.56799 8.42105 8.4V9.45H7.89474C5.80092 9.45 3.79287 8.62032 2.31231 7.14347C0.831765 5.66662 0 3.66358 0 1.575V2.58222e-06H3.68421Z" fill="#FFB648"/>
</svg>
