<svg width="24" height="14" viewBox="0 0 24 14" fill="none" xmlns="http://www.w3.org/2000/svg">
<path d="M21.6131 2.03646C21.1165 1.82369 20.5561 1.9076 20.1469 2.25391L17.4468 4.53861C16.5592 5.2896 15.4301 5.70318 14.2675 5.70318H9.81285C9.25536 5.70318 8.91711 5.08161 9.22569 4.61324C11.2794 1.49547 11.1488 1.69253 11.1687 1.66595C11.5265 1.1889 11.3627 0.506494 10.8324 0.241321C10.4269 0.0385854 9.93337 0.150476 9.65479 0.507056L5.88494 5.78376C5.83478 5.85398 5.77211 5.91435 5.70006 5.96193L1.11922 8.9844C0.80169 9.19389 0.708361 9.61788 0.908565 9.94136C1.63424 11.1136 3.20498 13.651 3.21928 13.6735C3.40725 13.9724 3.80185 14.0912 4.13176 13.9236L9.27215 11.3075L16.224 10.4385C17.6449 10.2609 18.9308 9.48625 19.7521 8.31306L23.0696 3.57373C23.3264 3.20684 23.1793 2.69651 22.7666 2.52255L21.6131 2.03646Z" fill="#F79E1B"/>
</svg>
