<svg width="20" height="20" viewBox="0 0 20 20" fill="none" xmlns="http://www.w3.org/2000/svg">
<path d="M12 3.4H14.4C14.9523 3.4 15.4 2.95228 15.4 2.4V1C15.4 0.44772 14.9523 0 14.4 0H9C8.44772 0 8 0.44772 8 1V4.2H12V3.4Z" fill="#51D5EC"/>
<path d="M6.00002 18.4V17H10.4V18.4H11.8V17H16.4V18.4H17C17.4418 18.4 17.8 18.7582 17.8 19.2C17.8 19.6418 17.4418 20 17 20H5.20002C4.7582 20 4.40002 19.6418 4.40002 19.2C4.40002 18.7582 4.7582 18.4 5.20002 18.4H6.00002Z" fill="#51D5EC"/>
<path d="M0.8 6.60007C1.24182 6.60007 1.6 6.95825 1.6 7.40007V9.80007H3V8.00007C3 6.62025 3.93152 5.45801 5.2 5.10791V16.0922C3.93152 15.7421 3 14.5799 3 13.2001V11.4001H1.6V13.8001C1.6 14.2419 1.24182 14.6001 0.8 14.6001C0.35818 14.6001 0 14.2419 0 13.8001V7.40007C0 6.95825 0.35818 6.60007 0.8 6.60007Z" fill="#51D5EC"/>
<path fill-rule="evenodd" clip-rule="evenodd" d="M6 16.2V5H16.4V16.2C12.9333 16.2 9.46666 16.2 6 16.2ZM7.8 7.8C7.57908 7.8 7.4 7.97908 7.4 8.2C7.4 8.42092 7.57908 8.6 7.8 8.6H10.8C11.0209 8.6 11.2 8.42092 11.2 8.2C11.2 7.97908 11.0209 7.8 10.8 7.8H7.8ZM7.8 10.2C7.57908 10.2 7.4 10.3791 7.4 10.6C7.4 10.8209 7.57908 11 7.8 11H10.8C11.0209 11 11.2 10.8209 11.2 10.6C11.2 10.3791 11.0209 10.2 10.8 10.2H7.8ZM7.4 13C7.4 12.7791 7.57908 12.6 7.8 12.6H10.8C11.0209 12.6 11.2 12.7791 11.2 13C11.2 13.2209 11.0209 13.4 10.8 13.4H7.8C7.57908 13.4 7.4 13.2209 7.4 13Z" fill="#51D5EC"/>
<path d="M17.2 16.0169C18.8228 15.5072 20 13.991 20 12.2V8.99999C20 7.20893 18.8228 5.69281 17.2 5.18311V16.0169Z" fill="#51D5EC"/>
</svg>
