<svg width="25" height="25" viewBox="0 0 25 25" fill="none" xmlns="http://www.w3.org/2000/svg">
<path d="M7.47111 0C6.57492 0 5.12248 0.20582 3.96671 0.601058C3.39253 0.798413 2.89067 1.04392 2.56433 1.30212C2.45626 1.38713 2.3604 1.48287 2.27879 1.5873H12.6628C12.5886 1.49365 12.5021 1.39947 12.3785 1.30212C12.0509 1.04392 11.5503 0.798413 10.9755 0.601058C9.81973 0.20582 8.36729 0 7.47111 0ZM3.08288 2.53968V9.4127L7.47111 11.6667L11.8593 9.4127V2.53968H3.08288ZM13.4045 6.66667V7.61905H14.826V8.35979H12.9718V9.31217H16.1425L17.9534 10.8677L18.7445 10.1905L16.5998 8.35979H15.9385V7.61905H17.3601V6.66667H13.4045ZM2.81403 10.3862L0 24.8413L1.09767 25L2.17433 19.4709H12.7679L13.8433 25L14.9434 24.8413L12.1313 10.3862L11.0991 10.9153L11.9459 15.2434L7.47111 16.6402L2.99759 15.2487L3.8431 10.9153L2.81403 10.3862ZM19.0783 11.5714C19.0783 11.5714 18.4478 14.1958 19.3997 14.7302C20.0054 15.0688 21.1797 14.5767 21.3156 13.9153C21.5505 12.8783 19.0783 11.5714 19.0783 11.5714ZM20.883 16.0847C20.883 16.0847 20.0548 17.6243 20.5245 18.1217C20.8274 18.4339 21.6 18.3175 21.7977 17.9312C22.1191 17.3175 20.883 16.0847 20.883 16.0847ZM2.81032 16.2063L5.83325 17.1481L2.42032 18.2116L2.81032 16.2063ZM12.1313 16.2063L12.5207 18.2116L9.10896 17.1481L12.1313 16.2063ZM23.1945 16.6032C23.1945 16.6032 23.2811 18.3016 23.9609 18.5556C24.4059 18.7143 25.024 18.3069 24.9993 17.8836C24.9498 17.2169 23.1945 16.6032 23.1945 16.6032ZM7.47111 17.6561L10.24 18.5185H4.7022L7.47111 17.6561ZM23.0277 19.7989C23.0277 19.7989 22.8175 20.9365 23.2378 21.1852C23.5036 21.3386 23.9857 21.1323 24.0289 20.8519C24.1093 20.3968 23.0277 19.7989 23.0277 19.7989Z" fill="#D00000"/>
</svg>
